<?xml version="1.0" standalone="no"?>
<!DOCTYPE svg PUBLIC "-//W3C//DTD SVG 20010904//EN"
 "http://www.w3.org/TR/2001/REC-SVG-20010904/DTD/svg10.dtd">
<svg version="1.0" xmlns="http://www.w3.org/2000/svg"
 width="388.000000pt" height="388.000000pt" viewBox="0 0 388.000000 388.000000"
 preserveAspectRatio="xMidYMid meet">

<g transform="translate(0.000000,388.000000) scale(0.100000,-0.100000)"
fill="#000000" stroke="none">
<path d="M3375 3415 l-30 -14 40 5 c33 5 44 2 60 -16 33 -36 27 -174 -15 -330
-29 -113 -32 -134 -27 -225 5 -92 22 -183 33 -172 2 2 -1 28 -7 58 -18 85 -5
234 35 394 44 175 47 254 11 290 -27 28 -56 31 -100 10z"/>
<path d="M3581 3134 c0 -11 3 -14 6 -6 3 7 2 16 -1 19 -3 4 -6 -2 -5 -13z"/>
<path d="M3592 3085 c0 -16 2 -22 5 -12 2 9 2 23 0 30 -3 6 -5 -1 -5 -18z"/>
<path d="M3597 2940 c-8 -132 -29 -225 -88 -395 -36 -103 -43 -132 -43 -203
-1 -80 0 -85 27 -108 18 -15 40 -24 60 -23 18 0 25 3 17 6 -105 34 -107 133
-8 418 38 110 42 130 46 245 5 165 -2 206 -11 60z"/>
<path d="M1899 2947 c-65 -44 -76 -114 -34 -231 13 -39 23 -71 22 -72 -1 -2
-34 -17 -72 -35 -111 -50 -226 -86 -332 -104 -181 -30 -271 -123 -218 -224 13
-26 12 -33 -12 -82 -35 -69 -92 -125 -159 -156 l-54 -24 -21 20 c-20 18 -110
44 -294 82 -33 7 -109 13 -170 13 -105 1 -113 0 -164 -30 -42 -23 -62 -43 -85
-85 -28 -50 -31 -63 -34 -165 -4 -121 16 -257 64 -421 69 -240 192 -426 325
-493 24 -13 72 -49 105 -80 56 -52 249 -181 317 -211 19 -9 27 -20 27 -38 2
-110 305 -213 759 -256 85 -8 197 -14 250 -14 90 1 85 2 -74 15 -278 22 -512
69 -669 134 -74 31 -159 80 -151 88 2 2 44 -12 93 -32 114 -46 192 -63 363
-81 76 -8 169 -20 207 -25 118 -18 428 -24 562 -11 409 39 785 186 958 375 96
106 117 229 64 381 -16 44 -63 143 -106 220 -84 154 -111 228 -102 281 14 74
209 313 321 392 l30 21 -80 1 c-99 0 -187 22 -240 58 -79 55 -49 78 63 48 28
-8 50 -10 47 -5 -8 12 -131 49 -165 49 -39 0 -132 -66 -215 -151 l-70 -73 68
62 c37 34 91 77 119 97 l52 34 16 -37 c10 -21 37 -62 62 -93 l45 -55 -37 -42
c-61 -68 -83 -124 -88 -224 -3 -51 1 -108 7 -135 20 -78 74 -182 145 -281 37
-52 79 -119 94 -150 78 -171 -13 -333 -260 -462 l-103 -54 71 70 c118 115 161
230 151 400 -6 97 -43 226 -93 326 -30 59 -125 211 -129 206 -2 -2 24 -57 56
-123 76 -154 109 -281 109 -414 0 -111 -15 -175 -60 -259 -124 -233 -391 -330
-1055 -386 l-160 -13 -90 87 c-257 247 -510 435 -720 536 -210 101 -354 110
-460 30 l-34 -27 -5 23 c-30 147 6 332 100 521 24 48 44 91 44 95 -1 15 -74
-107 -111 -183 -100 -210 -111 -399 -34 -563 l34 -73 -31 18 c-49 28 -123 105
-167 172 -92 143 -162 379 -164 551 -2 139 17 195 88 266 75 75 146 97 320 97
159 0 235 -15 278 -53 27 -24 32 -35 32 -77 0 -26 -3 -61 -8 -78 -6 -27 -6
-28 5 -10 7 11 13 57 14 105 l2 85 68 8 c82 10 168 -4 235 -39 26 -13 97 -57
157 -97 193 -130 302 -147 451 -69 272 140 332 172 326 172 -4 0 -33 -7 -64
-15 -169 -44 -430 -60 -536 -34 -124 30 -195 100 -195 190 l0 30 63 -8 c106
-14 500 -7 647 11 152 18 382 57 376 63 -2 2 -134 0 -292 -5 -609 -20 -952 23
-927 117 3 11 19 36 37 56 27 32 41 38 106 51 88 16 194 65 307 140 45 30 105
62 133 70 72 21 83 49 47 114 -68 121 10 226 105 141 31 -28 33 -33 32 -91 -1
-37 2 -56 7 -48 5 7 9 39 9 72 0 53 -3 61 -34 92 -33 33 -37 34 -109 34 -61 0
-80 -4 -108 -23z"/>
<path d="M2165 2672 c6 -6 58 -37 116 -69 113 -63 246 -118 366 -153 111 -32
128 -61 72 -125 -30 -34 -29 -47 1 -22 28 22 50 61 50 88 0 42 -47 75 -127 88
-82 15 -206 63 -368 143 -66 33 -115 55 -110 50z"/>
<path d="M3441 2645 c0 -5 6 -21 14 -35 8 -14 14 -20 14 -15 0 6 -6 21 -14 35
-8 14 -14 21 -14 15z"/>
<path d="M2325 2000 c-13 -6 -15 -9 -5 -9 8 0 22 4 30 9 18 12 2 12 -25 0z"/>
</g>
</svg>
